<svg xmlns="http://www.w3.org/2000/svg" viewBox="0 0 100 100">
  <!-- Green gradient background representing fertile land -->
  <defs>
    <linearGradient id="bgGradient" x1="0%" y1="0%" x2="0%" y2="100%">
      <stop offset="0%" style="stop-color:#10b981;stop-opacity:1" />
      <stop offset="100%" style="stop-color:#059669;stop-opacity:1" />
    </linearGradient>
  </defs>

  <!-- Background circle -->
  <circle cx="50" cy="50" r="50" fill="url(#bgGradient)"/>

  <!-- Wheat stalk design -->
  <!-- Main stem -->
  <line x1="50" y1="75" x2="50" y2="25" stroke="white" stroke-width="2.5" stroke-linecap="round"/>

  <!-- Left grains -->
  <ellipse cx="42" cy="30" rx="5" ry="7" fill="white" opacity="0.95"/>
  <ellipse cx="40" cy="38" rx="5" ry="7" fill="white" opacity="0.95"/>
  <ellipse cx="42" cy="46" rx="5" ry="7" fill="white" opacity="0.95"/>
  <ellipse cx="40" cy="54" rx="5" ry="7" fill="white" opacity="0.95"/>
  <ellipse cx="42" cy="62" rx="5" ry="7" fill="white" opacity="0.95"/>

  <!-- Right grains -->
  <ellipse cx="58" cy="30" rx="5" ry="7" fill="white" opacity="0.95"/>
  <ellipse cx="60" cy="38" rx="5" ry="7" fill="white" opacity="0.95"/>
  <ellipse cx="58" cy="46" rx="5" ry="7" fill="white" opacity="0.95"/>
  <ellipse cx="60" cy="54" rx="5" ry="7" fill="white" opacity="0.95"/>
  <ellipse cx="58" cy="62" rx="5" ry="7" fill="white" opacity="0.95"/>

  <!-- Center top grain -->
  <ellipse cx="50" cy="24" rx="5" ry="7" fill="white" opacity="0.95"/>

  <!-- Subtle details on grains (awns - wheat beards) -->
  <line x1="42" y1="28" x2="38" y2="22" stroke="white" stroke-width="1" opacity="0.6"/>
  <line x1="58" y1="28" x2="62" y2="22" stroke="white" stroke-width="1" opacity="0.6"/>
  <line x1="50" y1="22" x2="50" y2="16" stroke="white" stroke-width="1" opacity="0.6"/>
</svg>
